<svg fill="#55bbff" 
xmlns="http://www.w3.org/2000/svg" 
xmlns:xlink="http://www.w3.org/1999/xlink" 
version="1.1" x="0px" y="0px" 
viewBox="0 0 500 500" 
style="enable-background:new 0 0 512 512;" xml:space="preserve"><g><path d="M256,22C126.765,22,22,126.766,22,256s104.765,234,234,234s234-104.766,234-234S385.235,22,256,22z M411.373,390.112   l-26.212,25.201l-18.02-18.742l2.983-2.868H129.532v-26h53.158c-2.231-1.891-4.403-3.874-6.503-5.956l18.308-18.463   c15.879,15.747,36.851,24.419,59.052,24.419c46.605,0,84.521-38.496,84.521-85.813s-37.916-85.813-84.521-85.813   c-45.41,0-82.555,36.551-84.431,82.195l3.155-3.938l20.291,16.257l-23.246,29.015c-4.395,5.485-12.626,6.443-18.163,2.104   l-29.537-23.142l16.035-20.467l5.377,4.213c0-0.139-0.003-0.287-0.003-0.424c0-6.351,0.534-12.578,1.545-18.643   c-28.761-12.198-47.934-40.413-47.934-72.495c0-28.003,14.728-52.625,36.85-66.609l-8.194-2.827l8.479-24.578l46.114,15.907   c7.342,2.531,10.876,11.247,7.348,18.184l-18.954,37.257l-23.174-11.789l6.375-12.53c-17.107,8.771-28.843,26.532-28.843,46.985   c0,20.409,11.589,38.48,29.263,47.253c16.896-39.902,56.095-67.929,101.648-67.929c60.942,0,110.521,50.159,110.521,111.813   c0,34.438-15.473,65.286-39.751,85.813h47.261l-4.753-4.895l18.652-18.113l26.212,26.989   C416.639,376.782,416.496,385.188,411.373,390.112z"/></g><text x="0" y="527" fill="#000000" font-size="5px" font-weight="bold" font-family="'Helvetica Neue', Helvetica, Arial-Unicode, Arial, Sans-serif">Created by SBTS</text><text x="0" y="532" fill="#000000" font-size="5px" font-weight="bold" font-family="'Helvetica Neue', Helvetica, Arial-Unicode, Arial, Sans-serif">from the Noun Project</text></svg>