<svg 
xmlns="http://www.w3.org/2000/svg" 
xmlns:xlink="http://www.w3.org/1999/xlink" 
version="1.1" 
x="0px" y="0px" 
viewBox="0 0 100 150" enable-background="new 0 0 100 100" xml:space="preserve">
<path d="M89.487,76.263C78.789,81.79,64.766,84.833,50,84.833s-28.789-3.044-39.487-8.571c-3.774-1.95-7.028-4.158-9.751-6.57  C0.271,71.147,0,72.64,0,74.167C0,88.434,22.386,100,50,100s50-11.566,50-25.833c0-1.527-0.271-3.02-0.763-4.474  C96.515,72.104,93.261,74.313,89.487,76.263z"/>
<ellipse cx="50" cy="25.833" rx="50" ry="25.833"/>
<path d="M89.487,52.096C78.789,57.623,64.766,60.667,50,60.667s-28.789-3.044-39.487-8.571c-3.774-1.95-7.028-4.158-9.751-6.57  C0.271,46.98,0,48.473,0,50c0,14.267,22.386,25.833,50,25.833S100,64.267,100,50c0-1.527-0.271-3.02-0.763-4.474  C96.515,47.938,93.261,50.146,89.487,52.096z"/>
<text x="0" y="140" fill="#000" font-size="45px" font-weight="bold" 
font-family="'Gill Sans', Verdana, Eurostyle, Arial, Verdana, Tacoma, 'Helvetica Neue', Helvetica, Arial-Unicode, Arial, Sans-serif">SQL</text>
<!-- <text x="0" y="120" fill="#000000" font-size="5px" font-weight="bold" font-family="'Helvetica Neue', Helvetica, Arial-Unicode, Arial, Sans-serif">from the Noun Project</text> -->
</svg>