<svg 
xmlns="http://www.w3.org/2000/svg" 
xmlns:xlink="http://www.w3.org/1999/xlink" 
version="1.1" x="0px" y="0px" 
viewBox="0 0 100 100" enable-background="new 0 0 100 100" xml:space="preserve">
<path d="M86.185,5H13.815c-2.032,0-3.685,1.653-3.685,3.685v82.631c0,2.031,1.652,3.685,3.685,3.685h72.369  c2.032,0,3.685-1.653,3.685-3.685V8.685C89.869,6.653,88.217,5,86.185,5z M36.902,87.011c-1.383,0-3.129-0.486-3.832-0.924  l-0.374-0.233l0.561-3.414l0.828,0.478c0.552,0.317,1.837,0.672,2.799,0.672c0.663,0,1.06-0.309,1.06-0.824  c0-0.229,0-0.541-1.403-1.106c-2.25-0.881-3.391-2.3-3.391-4.216c0-2.554,1.959-4.337,4.764-4.337c1.285,0,2.721,0.387,3.477,0.77  l0.482,0.244l-0.913,3.305l-0.731-0.396c-0.356-0.193-1.269-0.5-2.199-0.5c-0.772,0-0.833,0.521-0.833,0.68  c0,0.267,0,0.459,1.528,1.111c2.193,0.913,3.216,2.263,3.216,4.247C41.939,84.616,40.62,87.011,36.902,87.011z M54.732,88.683  l-0.611-0.194c-1.52-0.483-2.819-0.987-4.348-1.691c-0.143-0.062-0.324-0.101-0.526-0.114c-2.656-0.191-5.334-2.318-5.334-6.637  c0-4.032,2.444-6.848,5.94-6.848c3.403,0,5.779,2.716,5.779,6.603c0,2.103-0.669,3.919-1.809,5.045  c0.449,0.112,0.901,0.213,1.325,0.31l0.734,0.166L54.732,88.683z M67.304,86.819l-9.535,0.017V73.297h3.96v9.954h5.575V86.819z   M15.264,67.654l0.002-57.521h69.466l0.012,57.521H15.264z"/>
<path d="M49.79,76.626c-1.359,0-1.979,1.728-1.979,3.332c-0.009,1.23,0.313,2.264,0.881,2.836c0.304,0.307,0.668,0.461,1.083,0.461  c1.449,0,1.963-1.804,1.963-3.349C51.737,78.325,51.127,76.626,49.79,76.626z"/>
<path d="M50,15.528c-9.053,0-18.416,2.814-18.416,7.523v31.685c0,4.709,9.363,7.523,18.416,7.523s18.416-2.814,18.416-7.523V23.052  C68.416,18.343,59.053,15.528,50,15.528z M66.354,54.736c0,2.28-6.222,5.461-16.354,5.461s-16.354-3.181-16.354-5.461v-7.016  C36.9,50.26,43.529,51.698,50,51.698s13.1-1.438,16.354-3.978V54.736z M66.354,44.175c0,2.281-6.222,5.462-16.354,5.462  s-16.354-3.181-16.354-5.462v-7.016c3.255,2.54,9.884,3.978,16.354,3.978s13.1-1.438,16.354-3.978V44.175z M66.354,33.613  c0,2.281-6.222,5.462-16.354,5.462s-16.354-3.181-16.354-5.462v-7.017c3.255,2.54,9.884,3.979,16.354,3.979s13.1-1.438,16.354-3.979  V33.613z"/>
<!-- <text x="0" y="115" fill="#000000" font-size="5px" font-weight="bold" font-family="'Helvetica Neue', Helvetica, Arial-Unicode, Arial, Sans-serif">Created by Milinda Courey</text> -->
<!-- <text x="0" y="120" fill="#000000" font-size="5px" font-weight="bold" font-family="'Helvetica Neue', Helvetica, Arial-Unicode, Arial, Sans-serif">from the Noun Project</text> -->
</svg>