<?xml version="1.0" encoding="UTF-8" standalone="no"?>
<!DOCTYPE svg PUBLIC "-//W3C//DTD SVG 1.1//EN" "http://www.w3.org/Graphics/SVG/1.1/DTD/svg11.dtd">
<svg width="100%" height="100%" viewBox="0 0 614 874" version="1.1" xmlns="http://www.w3.org/2000/svg" xmlns:xlink="http://www.w3.org/1999/xlink" xml:space="preserve" xmlns:serif="http://www.serif.com/" style="fill-rule:evenodd;clip-rule:evenodd;stroke-linejoin:round;stroke-miterlimit:2;">
    <path d="M563.519,7.462l-514.186,-0c-23.631,-0 -42.849,19.279 -42.849,42.986l0,773.745c0,23.707 19.218,42.986 42.849,42.986l514.186,0c23.632,0 42.849,-19.279 42.849,-42.986l0,-773.745c0,-23.707 -19.217,-42.986 -42.849,-42.986Z" style="fill:#fff;fill-rule:nonzero;"/>
    <g transform="matrix(31.9161,0,0,35.0008,19.116,16.7809)">
        <path d="M11.87,0l-11.87,10.174l-0,3.303l14.702,-13.477l-2.832,0Z" style="fill:#f0eae3;"/>
        <path d="M18,2.876l0,-1.876c0,-0.368 -0.208,-0.675 -0.503,-0.849l-17.497,16.039l0,2.286l18,-15.6Z" style="fill:#f0eae3;"/>
        <path d="M6.162,24l11.838,-10.062l0,-3.338l-14.786,13.4l2.948,0Z" style="fill:#f0eae3;"/>
        <path d="M9.25,24l7.75,0c0.552,0 1,-0.448 1,-1l-0,-6.438l-8.751,7.438Z" style="fill:#f0eae3;"/>
        <path d="M8.797,0l-7.797,0c-0.553,0 -1,0.448 -1,1l0,6.54l8.797,-7.54Z" style="fill:#f0eae3;"/>
        <path d="M18,5.524l-18,15.6l0,1.876c0,0.342 0.183,0.629 0.445,0.81l17.555,-15.91l0,-2.376Z" style="fill:#f0eae3;"/>
    </g>
    <g transform="matrix(10.7122,0,0,10.7465,-229.184,-100.003)">
        <path d="M74,10l-48,0c-2.206,0 -4,1.794 -4,4l0,72c0,2.206 1.794,4 4,4l48,0c2.206,0 4,-1.794 4,-4l0,-72c0,-2.206 -1.794,-4 -4,-4Zm2,76c0,1.103 -0.897,2 -2,2l-48,0c-1.103,0 -2,-0.897 -2,-2l0,-72c0,-1.103 0.897,-2 2,-2l48,0c1.103,0 2,0.897 2,2l0,72Z" style="fill:#413d40;fill-rule:nonzero;"/>
    </g>
    <g transform="matrix(10.7122,0,0,10.7465,-229.184,-100.003)">
        <path d="M73.75,14l-47.5,0c-0.138,0 -0.25,0.112 -0.25,0.25l0,71.5c0,0.138 0.112,0.25 0.25,0.25l47.5,0c0.138,0 0.25,-0.112 0.25,-0.25l0,-71.5c0,-0.138 -0.112,-0.25 -0.25,-0.25Zm-0.25,71.5l-47,0l0,-71l47,0l0,71Z" style="fill:#413d40;fill-rule:nonzero;"/>
    </g>
</svg>
